<?xml version="1.0" encoding="UTF-8" standalone="no"?>
<svg
   xmlns:dc="http://purl.org/dc/elements/1.1/"
   xmlns:cc="http://creativecommons.org/ns#"
   xmlns:rdf="http://www.w3.org/1999/02/22-rdf-syntax-ns#"
   xmlns:svg="http://www.w3.org/2000/svg"
   xmlns="http://www.w3.org/2000/svg"
   xmlns:sodipodi="http://sodipodi.sourceforge.net/DTD/sodipodi-0.dtd"
   xmlns:inkscape="http://www.inkscape.org/namespaces/inkscape"
   width="600"
   height="600"
   version="1.1"
   id="svg18"
   sodipodi:docname="Not Green Arrows.svg"
   inkscape:version="0.92.4 (5da689c313, 2019-01-14)">
  <metadata
     id="metadata24">
    <rdf:RDF>
      <cc:Work
         rdf:about="">
        <dc:format>image/svg+xml</dc:format>
        <dc:type
           rdf:resource="http://purl.org/dc/dcmitype/StillImage" />
        <dc:title></dc:title>
        <cc:license
           rdf:resource="" />
      </cc:Work>
    </rdf:RDF>
  </metadata>
  <defs
     id="defs22" />
  <sodipodi:namedview
     pagecolor="#ffffff"
     bordercolor="#666666"
     borderopacity="1"
     objecttolerance="10"
     gridtolerance="10"
     guidetolerance="10"
     inkscape:pageopacity="0"
     inkscape:pageshadow="2"
     inkscape:window-width="1920"
     inkscape:window-height="1057"
     id="namedview20"
     showgrid="false"
     inkscape:zoom="1.5725403"
     inkscape:cx="334.4974"
     inkscape:cy="272.6553"
     inkscape:window-x="1912"
     inkscape:window-y="-8"
     inkscape:window-maximized="1"
     inkscape:current-layer="svg18"
     showguides="true"
     inkscape:guide-bbox="true"
     inkscape:snap-object-midpoints="false"
     inkscape:snap-bbox="true"
     inkscape:snap-bbox-midpoints="true">
    <sodipodi:guide
       position="0,300"
       orientation="0,1"
       id="guide834"
       inkscape:locked="false"
       inkscape:label=""
       inkscape:color="rgb(0,0,255)" />
    <sodipodi:guide
       position="300,300"
       orientation="1,0"
       id="guide836"
       inkscape:locked="false"
       inkscape:label=""
       inkscape:color="rgb(0,0,255)" />
  </sodipodi:namedview>
  <path
     fill="none"
     stroke="#000"
     stroke-width="5.429"
     d="M5.267 5.276h589.689v589.68H5.267z"
     id="path2" />
  <ellipse
     cx="543.22351"
     cy="56.586304"
     rx="22.881001"
     ry="23.473"
     id="ellipse4"
     style="fill:none;stroke:#000000;stroke-width:5.5710001" />
  <path
     d="M 218.64675,218.16632 H 381.83368 V 381.35325 H 218.64675 Z"
     id="path6"
     inkscape:connector-curvature="0"
     style="stroke:#000000;stroke-width:5.60481119;stroke-miterlimit:4;stroke-dasharray:none" />
  <path
     sodipodi:type="star"
     style="fill:#666666;fill-opacity:1;fill-rule:evenodd;stroke:#000000;stroke-width:4.50333548;stroke-linecap:square;stroke-linejoin:miter;stroke-miterlimit:4;stroke-dasharray:none;stroke-dashoffset:0;stroke-opacity:1"
     id="path840"
     sodipodi:sides="3"
     sodipodi:cx="300"
     sodipodi:cy="155.77757"
     sodipodi:r1="82.337059"
     sodipodi:r2="41.16853"
     sodipodi:arg1="-1.5707963"
     sodipodi:arg2="-0.52359878"
     inkscape:flatsided="true"
     inkscape:rounded="0"
     inkscape:randomized="0"
     d="m 300,73.440514 71.30598,123.505586 -142.61197,0 z"
     inkscape:transform-center-y="-22.701604"
     inkscape:transform-center-x="9.0983212e-06"
     transform="matrix(1.1177647,0,0,1.1028616,-35.089193,-33.143067)" />
  <path
     transform="matrix(0,1.1177647,-1.1028616,0,633.14306,-35.569625)"
     inkscape:transform-center-x="-22.701594"
     inkscape:transform-center-y="-8.8939055e-06"
     d="m 300,73.440514 71.30598,123.505586 -142.61197,0 z"
     inkscape:randomized="0"
     inkscape:rounded="0"
     inkscape:flatsided="true"
     sodipodi:arg2="-0.52359878"
     sodipodi:arg1="-1.5707963"
     sodipodi:r2="41.16853"
     sodipodi:r1="82.337059"
     sodipodi:cy="155.77757"
     sodipodi:cx="300"
     sodipodi:sides="3"
     id="path1496"
     style="fill:#666666;fill-opacity:1;fill-rule:evenodd;stroke:#000000;stroke-width:4.50333548;stroke-linecap:square;stroke-linejoin:miter;stroke-miterlimit:4;stroke-dasharray:none;stroke-dashoffset:0;stroke-opacity:1"
     sodipodi:type="star" />
  <path
     transform="matrix(-1.1177647,0,0,-1.1028616,635.56963,636.97799)"
     inkscape:transform-center-x="-9.2177135e-06"
     inkscape:transform-center-y="22.701612"
     d="m 300,73.440514 71.30598,123.505586 -142.61197,0 z"
     inkscape:randomized="0"
     inkscape:rounded="0"
     inkscape:flatsided="true"
     sodipodi:arg2="-0.52359878"
     sodipodi:arg1="-1.5707963"
     sodipodi:r2="41.16853"
     sodipodi:r1="82.337059"
     sodipodi:cy="155.77757"
     sodipodi:cx="300"
     sodipodi:sides="3"
     id="path1500"
     style="fill:#666666;fill-opacity:1;fill-rule:evenodd;stroke:#000000;stroke-width:4.50333548;stroke-linecap:square;stroke-linejoin:miter;stroke-miterlimit:4;stroke-dasharray:none;stroke-dashoffset:0;stroke-opacity:1"
     sodipodi:type="star" />
  <path
     sodipodi:type="star"
     style="fill:#666666;fill-opacity:1;fill-rule:evenodd;stroke:#000000;stroke-width:4.50333548;stroke-linecap:square;stroke-linejoin:miter;stroke-miterlimit:4;stroke-dasharray:none;stroke-dashoffset:0;stroke-opacity:1"
     id="path1502"
     sodipodi:sides="3"
     sodipodi:cx="300"
     sodipodi:cy="155.77757"
     sodipodi:r1="82.337059"
     sodipodi:r2="41.16853"
     sodipodi:arg1="-1.5707963"
     sodipodi:arg2="-0.52359878"
     inkscape:flatsided="true"
     inkscape:rounded="0"
     inkscape:randomized="0"
     d="m 300,73.440514 71.30598,123.505586 -142.61197,0 z"
     inkscape:transform-center-y="8.5721214e-06"
     inkscape:transform-center-x="22.701604"
     transform="matrix(0,-1.1177647,1.1028616,0,-36.97798,635.08921)" />
  <g
     aria-label="ERR"
     style="font-style:normal;font-variant:normal;font-weight:normal;font-stretch:normal;font-size:72.30032349px;line-height:1.25;font-family:sans-serif;-inkscape-font-specification:sans-serif;font-variant-ligatures:normal;font-variant-position:normal;font-variant-caps:normal;font-variant-numeric:normal;font-variant-alternates:normal;font-feature-settings:normal;text-indent:0;text-align:center;text-decoration:none;text-decoration-line:none;text-decoration-style:solid;text-decoration-color:#000000;letter-spacing:0px;word-spacing:0px;text-transform:none;writing-mode:lr-tb;direction:ltr;text-orientation:mixed;dominant-baseline:auto;baseline-shift:baseline;text-anchor:middle;white-space:normal;shape-padding:0;opacity:1;vector-effect:none;fill:#808080;fill-opacity:1;stroke:none;stroke-width:3.87323141;stroke-linecap:butt;stroke-linejoin:miter;stroke-miterlimit:4;stroke-dasharray:none;stroke-dashoffset:0;stroke-opacity:1"
     id="text822">
    <path
       d="m 269.77382,326.04279 h -34.63214 v -52.56601 h 34.63214 v 6.21331 h -27.64216 v 14.40358 h 27.64216 v 6.21331 h -27.64216 v 19.5225 h 27.64216 z"
       style="stroke-width:3.87323141"
       id="path824" />
    <path
       d="m 324.3874,326.04279 h -9.07285 l -17.58084,-20.89932 h -9.8495 v 20.89932 h -6.98998 v -52.56601 h 14.72131 q 4.76589,0 7.94315,0.63545 3.17726,0.60015 5.71907,2.18878 2.85953,1.80045 4.44816,4.55407 1.62394,2.71833 1.62394,6.91937 0,5.68377 -2.85954,9.53178 -2.85953,3.81271 -7.87254,5.75437 z m -16.34524,-37.7741 q 0,-2.25938 -0.81197,-3.98923 -0.77666,-1.76514 -2.61241,-2.96544 -1.51803,-1.02378 -3.6009,-1.41211 -2.08287,-0.42364 -4.9071,-0.42364 h -8.22557 v 19.84023 h 7.06057 q 3.31848,0 5.78968,-0.56485 2.4712,-0.60015 4.20104,-2.18878 1.58863,-1.48272 2.32999,-3.38908 0.77667,-1.94166 0.77667,-4.9071 z"
       style="stroke-width:3.87323141"
       id="path826" />
    <path
       d="m 374.65871,326.04279 h -9.07284 l -17.58084,-20.89932 h -9.84951 v 20.89932 h -6.98997 v -52.56601 h 14.72131 q 4.76589,0 7.94315,0.63545 3.17726,0.60015 5.71906,2.18878 2.85954,1.80045 4.44817,4.55407 1.62393,2.71833 1.62393,6.91937 0,5.68377 -2.85953,9.53178 -2.85954,3.81271 -7.87255,5.75437 z m -16.34524,-37.7741 q 0,-2.25938 -0.81196,-3.98923 -0.77667,-1.76514 -2.61242,-2.96544 -1.51802,-1.02378 -3.60089,-1.41211 -2.08287,-0.42364 -4.9071,-0.42364 h -8.22558 v 19.84023 h 7.06058 q 3.31847,0 5.78967,-0.56485 2.47121,-0.60015 4.20105,-2.18878 1.58863,-1.48272 2.32999,-3.38908 0.77666,-1.94166 0.77666,-4.9071 z"
       style="stroke-width:3.87323141"
       id="path828" />
  </g>
</svg>
